<?xml version="1.0" encoding="UTF-8"?>
<svg width="40" height="40" viewBox="0 0 40 40" xmlns="http://www.w3.org/2000/svg">
  <defs>
    <!-- Simple gradient - white to blue -->
    <linearGradient id="simpleGradient" x1="0%" y1="0%" x2="100%" y2="100%">
      <stop offset="0%" stop-color="#ffffff"/>
      <stop offset="100%" stop-color="#0ea5e9"/>
    </linearGradient>
  </defs>
  
  <!-- Simple shield shape -->
  <path d="M20 5 C20 5, 25 4, 30 5 C35 6, 37 10, 37 15 C37 25, 32 32, 25 35 C22 36, 22 36, 20 35 C13 32, 3 25, 3 15 C3 10, 5 6, 10 5 C15 4, 20 5, 20 5 Z" 
        fill="url(#simpleGradient)" 
        stroke="rgba(14, 165, 233, 0.3)" 
        stroke-width="1"/>
  
  <!-- Simple lock icon -->
  <g opacity="0.9">
    <rect x="17" y="20" width="6" height="6" rx="1" fill="white"/>
    <path d="M18 20 C18 18, 19 17, 20 17 C21 17, 22 18, 22 20" 
          fill="none" 
          stroke="white" 
          stroke-width="1.5"/>
    <circle cx="20" cy="22" r="1" fill="#0ea5e9"/>
  </g>
</svg>