<?xml version="1.0" encoding="UTF-8"?>
<svg width="300" height="80" viewBox="0 0 300 80" xmlns="http://www.w3.org/2000/svg" xmlns:xlink="http://www.w3.org/1999/xlink">
  <defs>
    <!-- Shield Gradient -->
    <linearGradient id="shieldGradient" x1="0%" y1="0%" x2="100%" y2="100%">
      <stop offset="0%" stop-color="#0ea5e9" stop-opacity="1"/>
      <stop offset="50%" stop-color="#06b6d4" stop-opacity="1"/>
      <stop offset="100%" stop-color="#8b5cf6" stop-opacity="1"/>
    </linearGradient>
    
    <!-- Holographic Glow -->
    <filter id="holographicGlow" x="-30%" y="-30%" width="160%" height="160%">
      <feGaussianBlur stdDeviation="2" result="blur"/>
      <feColorMatrix in="blur" type="matrix" values="0 0 0 0 0.055 0 0 0 0 0.647 0 0 0 0 0.914 0 0 0 0.6 0"/>
      <feMerge>
        <feMergeNode in="SourceGraphic"/>
        <feMergeNode in="blur"/>
      </feMerge>
    </filter>
    
    <!-- Inner Glow -->
    <filter id="innerGlow" x="-20%" y="-20%" width="140%" height="140%">
      <feGaussianBlur stdDeviation="1" result="blur"/>
      <feColorMatrix in="blur" type="matrix" values="1 0 0 0 0 0 1 0 0 0.8 0 0 1 0 1 0 0 0 0.4 0"/>
      <feMerge>
        <feMergeNode in="SourceGraphic"/>
        <feMergeNode in="blur"/>
      </feMerge>
    </filter>
    
    <!-- Quantum Grid Pattern -->
    <pattern id="quantumGrid" x="0" y="0" width="8" height="8" patternUnits="userSpaceOnUse">
      <rect width="8" height="8" fill="none"/>
      <circle cx="4" cy="4" r="0.5" fill="rgba(255,255,255,0.3)">
        <animate attributeName="opacity" values="0.3;0.7;0.3" dur="3s" repeatCount="indefinite"/>
      </circle>
      <path d="M0,4 L8,4 M4,0 L4,8" stroke="rgba(255,255,255,0.15)" stroke-width="0.3"/>
      <path d="M2,2 L6,6 M6,2 L2,6" stroke="rgba(6,182,212,0.2)" stroke-width="0.2"/>
    </pattern>
    
    <!-- Text Gradient -->
    <linearGradient id="textGradient" x1="0%" y1="0%" x2="100%" y2="0%">
      <stop offset="0%" stop-color="#0ea5e9"/>
      <stop offset="50%" stop-color="#06b6d4"/>
      <stop offset="100%" stop-color="#6366f1"/>
    </linearGradient>
    
    <!-- Shimmer Effect -->
    <linearGradient id="shimmer" x1="0%" y1="0%" x2="100%" y2="100%">
      <stop offset="0%" stop-color="rgba(255,255,255,0)" stop-opacity="0"/>
      <stop offset="45%" stop-color="rgba(255,255,255,0)" stop-opacity="0"/>
      <stop offset="50%" stop-color="rgba(255,255,255,0.8)" stop-opacity="1"/>
      <stop offset="55%" stop-color="rgba(255,255,255,0)" stop-opacity="0"/>
      <stop offset="100%" stop-color="rgba(255,255,255,0)" stop-opacity="0"/>
      <animateTransform attributeName="gradientTransform" type="translate" values="-100 -100; 400 400; -100 -100" dur="4s" repeatCount="indefinite"/>
    </linearGradient>
  </defs>
  
  <!-- Shield Base -->
  <g id="shieldGroup">
    <!-- Drop Shadow -->
    <path d="M35 12 L50 18 L60 35 L55 52 L35 58 L15 52 L10 35 L20 18 Z" 
          fill="rgba(0,0,0,0.15)" 
          transform="translate(2,2)"/>
    
    <!-- Main Shield Shape (Geometric) -->
    <path id="mainShield" 
          d="M35 12 L50 18 L60 35 L55 52 L35 58 L15 52 L10 35 L20 18 Z" 
          fill="url(#shieldGradient)" 
          filter="url(#holographicGlow)"
          stroke="rgba(255,255,255,0.4)"
          stroke-width="1"/>
    
    <!-- Quantum Grid Inside Shield -->
    <clipPath id="shieldClip">
      <path d="M35 12 L50 18 L60 35 L55 52 L35 58 L15 52 L10 35 L20 18 Z"/>
    </clipPath>
    
    <!-- Grid Pattern -->
    <rect x="10" y="12" width="50" height="46" 
          fill="url(#quantumGrid)" 
          clip-path="url(#shieldClip)" 
          opacity="0.8"/>
    
    <!-- Circuit Lines -->
    <g clip-path="url(#shieldClip)" opacity="0.6">
      <path d="M20 25 L28 25 L32 29 L38 29 L42 33 L50 33" 
            stroke="rgba(6,182,212,0.7)" 
            stroke-width="1" 
            fill="none">
        <animate attributeName="stroke-opacity" values="0.3;0.9;0.3" dur="2s" repeatCount="indefinite"/>
      </path>
      <path d="M20 43 L26 43 L30 39 L36 39 L40 35 L50 35" 
            stroke="rgba(139,92,246,0.7)" 
            stroke-width="1" 
            fill="none">
        <animate attributeName="stroke-opacity" values="0.9;0.3;0.9" dur="2s" repeatCount="indefinite"/>
      </path>
      <circle cx="32" cy="29" r="1.5" fill="rgba(6,182,212,0.8)">
        <animate attributeName="r" values="1;2;1" dur="2s" repeatCount="indefinite"/>
      </circle>
      <circle cx="40" cy="35" r="1.5" fill="rgba(139,92,246,0.8)">
        <animate attributeName="r" values="2;1;2" dur="2s" repeatCount="indefinite"/>
      </circle>
    </g>
    
    <!-- Inner Highlight -->
    <path d="M35 16 L46 21 L54 35 L50 48 L35 54 L20 48 L16 35 L24 21 Z" 
          fill="rgba(255,255,255,0.15)" 
          opacity="0.7"/>
    
    <!-- Holographic Shimmer -->
    <rect x="10" y="12" width="50" height="46" 
          fill="url(#shimmer)" 
          clip-path="url(#shieldClip)" 
          opacity="0.4"/>
    
    <!-- Minimal Lock Icon -->
    <g id="lockIcon" filter="url(#innerGlow)">
      <rect x="31" y="36" width="8" height="10" rx="1.5" 
            fill="rgba(255,255,255,0.95)" 
            stroke="rgba(14,165,233,0.3)" 
            stroke-width="0.5"/>
      <path d="M33 36 C33 33.5, 34 32, 35 32 C36 32, 37 33.5, 37 36" 
            fill="none" 
            stroke="rgba(255,255,255,0.95)" 
            stroke-width="1.8" 
            stroke-linecap="round"/>
      <circle cx="35" cy="40" r="1.5" fill="rgba(14,165,233,0.9)">
        <animate attributeName="fill" values="rgba(14,165,233,0.9);rgba(255,255,255,1);rgba(14,165,233,0.9)" dur="3s" repeatCount="indefinite"/>
      </circle>
    </g>
  </g>
  
  <!-- Typography -->
  <g id="wordmark">
    <text x="85" y="42" 
          font-family="Inter, -apple-system, BlinkMacSystemFont, sans-serif" 
          font-size="26" 
          font-weight="800" 
          fill="url(#textGradient)"
          letter-spacing="-0.02em">KyberLink</text>
    
    <text x="85" y="56" 
          font-family="Inter, -apple-system, BlinkMacSystemFont, sans-serif" 
          font-size="9" 
          font-weight="600" 
          fill="rgba(139, 92, 246, 0.7)"
          letter-spacing="0.1em">QUANTUM-RESISTANT VPN</text>
  </g>
  
  <!-- Interactive States -->
  <style>
    .kyberlink-logo-v2:hover #shieldGroup {
      transform: scale(1.05);
      transition: transform 0.3s cubic-bezier(0.4, 0, 0.2, 1);
    }
    
    .kyberlink-logo-v2:hover #wordmark {
      filter: drop-shadow(0 2px 8px rgba(14,165,233,0.3));
      transition: filter 0.3s ease;
    }
    
    .logo-connected #mainShield {
      filter: url(#holographicGlow) drop-shadow(0 0 20px rgba(14,165,233,0.6));
      animation: connectedPulse 2s ease-in-out infinite;
    }
    
    .logo-disconnected #mainShield {
      opacity: 0.5;
      filter: grayscale(0.3);
    }
    
    @keyframes connectedPulse {
      0%, 100% { transform: scale(1); }
      50% { transform: scale(1.02); }
    }
  </style>
</svg>