<?xml version="1.0" encoding="UTF-8"?>
<svg width="32" height="32" viewBox="0 0 32 32" xmlns="http://www.w3.org/2000/svg">
  <defs>
    <linearGradient id="grad" x1="0%" y1="0%" x2="100%" y2="100%">
      <stop offset="0%" stop-color="#0ea5e9"/>
      <stop offset="50%" stop-color="#06b6d4"/>
      <stop offset="100%" stop-color="#8b5cf6"/>
    </linearGradient>
  </defs>
  
  <!-- Simplified Shield -->
  <path d="M16 3 L22 6 L26 16 L24 26 L16 29 L8 26 L6 16 L10 6 Z" 
        fill="url(#grad)" 
        stroke="rgba(255,255,255,0.5)"
        stroke-width="0.8"/>
  
  <!-- Simple Grid -->
  <g opacity="0.6">
    <path d="M10 12 L22 12 M10 16 L22 16 M10 20 L22 20" 
          stroke="rgba(255,255,255,0.4)" 
          stroke-width="0.5"/>
    <path d="M13 9 L13 23 M16 9 L16 23 M19 9 L19 23" 
          stroke="rgba(255,255,255,0.4)" 
          stroke-width="0.5"/>
  </g>
  
  <!-- Simple Lock -->
  <g>
    <rect x="14" y="18" width="4" height="5" rx="0.5" fill="white" opacity="0.9"/>
    <path d="M15 18 C15 16.5, 15.5 16, 16 16 C16.5 16, 17 16.5, 17 18" 
          fill="none" 
          stroke="white" 
          stroke-width="1" 
          opacity="0.9"/>
    <circle cx="16" cy="20" r="0.8" fill="#0ea5e9"/>
  </g>
</svg>